<?xml version="1.0" encoding="utf-8"?>
<!-- Generator: Adobe Illustrator 16.0.0, SVG Export Plug-In . SVG Version: 6.00 Build 0)  -->
<!DOCTYPE svg PUBLIC "-//W3C//DTD SVG 1.1//EN" "http://www.w3.org/Graphics/SVG/1.1/DTD/svg11.dtd">
<svg version="1.1" id="Layer_1" xmlns="http://www.w3.org/2000/svg" xmlns:xlink="http://www.w3.org/1999/xlink" x="0px" y="0px"
	 width="386px" height="352px" viewBox="0 0 386 352" enable-background="new 0 0 386 352" xml:space="preserve">
<path fill="#FFFFFF" d="M68.577,126.552c-5.873-0.026-11.532,2.432-15.617,6.479c-4.312,4.271-6.596,9.685-6.625,15.557
	l-0.081,17.619c-0.028,5.874,2.43,11.534,6.478,15.619c2.923,2.95,6.754,5.002,10.589,6.149L11.027,308.136
	c-3.201,8.116-2.116,17.385,2.821,24.637c4.936,7.252,13.047,11.808,22.083,11.851l159.489-0.159
	c6.776,0.032,13.565-2.646,18.331-7.369c0.227-0.224,0.453-0.449,0.453-0.449c1.364-1.35,2.272-2.7,3.408-4.275
	c5.007-7.658,5.729-16.917,2.38-25.291l-50.05-118.155c4.07-0.885,7.92-2.899,11.097-6.047c4.313-4.272,6.597-9.683,6.622-15.557
	l0.084-17.62c0.027-5.874-2.205-11.758-6.251-15.842c-4.047-4.086-9.683-6.597-15.557-6.625L68.577,126.552z M203.693,314.233
	c1.342,2.715,0.875,5.877-0.716,8.354c-0.455,0.45-0.684,1.127-1.139,1.576c-1.588,1.575-3.851,2.467-6.11,2.457L35.79,326.774
	c-3.163-0.013-5.641-1.606-7.437-3.875c-1.57-2.492-2.007-5.656-0.866-8.135l23.977-54.784
	c35.323-17.454,53.332-52.385,107.991-50.322L203.693,314.233z M170.352,149.393l-0.082,17.62c-0.01,2.26-2.052,4.283-4.539,4.497
	l-22.137-0.104L157,203.096l-1.119-2.49c-37.95-0.178-59.49,16.665-79.213,31.707c-6.349,4.941-12.47,9.656-18.813,13.692
	l32.427-74.848l-22.137-0.104c-2.26-0.011-4.283-2.054-4.498-4.539l0.082-17.62c0.011-2.259,2.053-4.282,4.54-4.497l97.588,0.456
	C168.114,144.864,170.138,146.907,170.352,149.393z"/>
<path fill="#FFFFFF" d="M87.411,52.612c-8.624,8.544-8.917,22.775-0.147,31.625c8.769,8.852,22.774,8.917,31.626,0.148
	c8.623-8.543,8.917-22.774,0.147-31.625C110.268,43.909,96.035,44.07,87.411,52.612z M112.369,77.804
	c-5.22,5.172-13.804,5.131-18.976-0.088c-5.171-5.22-5.131-13.804,0.089-18.975c5.219-5.171,13.804-5.131,18.975,0.089
	C117.627,64.049,117.588,72.633,112.369,77.804z"/>
<circle fill="#FFFFFF" cx="136.567" cy="101.079" r="8.945"/>
<g>
	<path fill="#FFFFFF" d="M167.027,88.391c-2.501,4.084-3.177,9.07-2.081,13.629c1.097,4.558,4.22,8.63,8.304,11.13l12.253,7.501
		c4.083,2.503,8.815,3.24,13.628,2.083c3.547-0.853,6.596-2.658,8.953-5.101l60.46,85.397c4.37,5.914,11.098,9.386,18.557,9.199
		c1.58-0.111,2.907-0.161,4.428-0.529c0,0,0.252-0.06,0.506-0.121c5.319-1.278,10.088-4.836,12.975-9.55l68.533-110.524
		c3.847-6.284,4.168-13.864,1.257-20.396c-2.911-6.535-8.87-11.263-15.872-12.527L253.17,43.293
		c0.849-3.152,1.071-6.689,0.279-9.981c-1.097-4.56-3.966-8.692-8.051-11.193l-12.254-7.501c-4.083-2.5-8.815-3.238-13.627-2.081
		c-4.561,1.097-8.692,3.966-11.193,8.051L167.027,88.391z M226.964,119.255c22.019-38.786,53.966-36.288,81.225-53.292l48.273,6.877
		c2.207,0.272,4.215,1.933,5.271,4.091c0.802,2.218,0.843,4.621-0.504,6.82l-68.726,110.838c-0.96,1.57-2.551,2.757-4.324,3.183
		c-0.506,0.123-1.075-0.01-1.582,0.112c-2.402,0.041-4.792-0.991-6.099-3.087L226.964,119.255z M179.28,95.893l41.552-67.865
		c1.213-1.631,3.493-2.18,5.064-1.218l12.254,7.502c1.632,1.215,2.181,3.495,1.219,5.067l-9.427,15.395l65.813,9.625
		c-5.521,2.667-11.417,4.888-17.566,7.172c-18.893,7.222-39.812,14.933-55.97,41.324l1.245,1.844l-16.223-22.892l-9.424,15.395
		c-1.217,1.632-3.496,2.181-5.067,1.218l-12.253-7.502C178.866,99.744,178.318,97.465,179.28,95.893z"/>
	<path fill="#FFFFFF" d="M126.218,31.224c2.375,9.878,12.371,15.78,21.993,13.466c9.878-2.376,15.841-12.115,13.465-21.993
		c-2.375-9.878-12.368-15.78-21.993-13.465C130.06,11.545,123.842,21.347,126.218,31.224z M133.249,29.265
		c-1.4-5.825,2.254-11.794,8.079-13.196c5.825-1.4,11.795,2.254,13.196,8.08s-2.255,11.795-8.081,13.196
		C140.62,38.746,134.651,35.09,133.249,29.265z"/>
	<circle fill="#FFFFFF" cx="156.813" cy="64.859" r="7.294"/>
</g>
</svg>
